<?xml version="1.0" encoding="UTF-8" standalone="no"?><!DOCTYPE svg PUBLIC "-//W3C//DTD SVG 1.1//EN" "http://www.w3.org/Graphics/SVG/1.1/DTD/svg11.dtd"><svg width="100%" height="100%" viewBox="0 0 667 667" version="1.1" xmlns="http://www.w3.org/2000/svg" xmlns:xlink="http://www.w3.org/1999/xlink" xml:space="preserve" xmlns:serif="http://www.serif.com/" style="fill-rule:evenodd;clip-rule:evenodd;stroke-linejoin:round;stroke-miterlimit:2;"><rect id="MAIN" x="0" y="0" width="666.667" height="666.667" style="fill:none;"/><g id="MAIN1" serif:id="MAIN"><path d="M283.333,62.201c30.94,-17.863 69.06,-17.863 100,-0c45.988,26.551 113.82,65.714 159.808,92.265c30.94,17.863 50,50.876 50,86.602l-0,184.53c-0,35.727 -19.06,68.74 -50,86.603c-45.988,26.551 -113.82,65.714 -159.808,92.265c-30.94,17.863 -69.06,17.863 -100,-0c-45.987,-26.551 -113.82,-65.714 -159.807,-92.265c-30.94,-17.863 -50,-50.876 -50,-86.603l-0,-184.53c-0,-35.726 19.06,-68.739 50,-86.602c45.987,-26.551 113.82,-65.714 159.807,-92.265Z" style="fill:url(#_Linear1);"/><clipPath id="_clip2"><path d="M283.333,62.201c30.94,-17.863 69.06,-17.863 100,-0c45.988,26.551 113.82,65.714 159.808,92.265c30.94,17.863 50,50.876 50,86.602l-0,184.53c-0,35.727 -19.06,68.74 -50,86.603c-45.988,26.551 -113.82,65.714 -159.808,92.265c-30.94,17.863 -69.06,17.863 -100,-0c-45.987,-26.551 -113.82,-65.714 -159.807,-92.265c-30.94,-17.863 -50,-50.876 -50,-86.603l-0,-184.53c-0,-35.726 19.06,-68.739 50,-86.602c45.987,-26.551 113.82,-65.714 159.807,-92.265Z"/></clipPath><g clip-path="url(#_clip2)"><path d="M-0,197.263l666.667,272.141l-0,197.263l-666.667,-0l-0,-469.404Z" style="fill:url(#_Linear3);"/><path d="M556.029,-0l-445.392,666.667l-110.637,-0l0,-666.667l556.029,-0Z" style="fill:url(#_Linear4);"/></g><path d="M420.133,203.411c-25.693,-17.166 -55.9,-26.328 -86.8,-26.328c-86.236,0 -156.25,70.014 -156.25,156.25c0,86.237 70.014,156.25 156.25,156.25c63.49,0 120.667,-38.417 144.662,-97.197l-54.929,-22.423c-14.884,36.461 -50.351,60.291 -89.733,60.291c-53.492,0 -96.921,-43.429 -96.921,-96.921c0,-53.492 43.429,-96.921 96.921,-96.921c19.167,0 37.904,5.684 53.842,16.331l32.958,-49.332Z" style="fill:#fff;"/></g><defs><linearGradient id="_Linear1" x1="0" y1="0" x2="1" y2="0" gradientUnits="userSpaceOnUse" gradientTransform="matrix(-477.625,522.402,-522.402,-477.625,573.669,80.1788)"><stop offset="0" style="stop-color:#23bbff;stop-opacity:1"/><stop offset="1" style="stop-color:#007bfc;stop-opacity:1"/></linearGradient><linearGradient id="_Linear3" x1="0" y1="0" x2="1" y2="0" gradientUnits="userSpaceOnUse" gradientTransform="matrix(-137.338,264.124,-264.124,-137.338,428.333,333.333)"><stop offset="0" style="stop-color:#0cb4ff;stop-opacity:1"/><stop offset="1" style="stop-color:#0cb4ff;stop-opacity:0"/></linearGradient><linearGradient id="_Linear4" x1="0" y1="0" x2="1" y2="0" gradientUnits="userSpaceOnUse" gradientTransform="matrix(-156.25,420.113,-420.113,-156.25,333.333,117.061)"><stop offset="0" style="stop-color:#29b6ff;stop-opacity:1"/><stop offset="1" style="stop-color:#29b6ff;stop-opacity:0"/></linearGradient></defs></svg>